# xmcd CD database file
#
# Track frame offsets:
#	183
#	16863
#	28705
#	41055
#	52325
#	65413
#	80338
#	89843
#	102083
#	112595
#	122285
#	135615
#	147070
#	158903
#	168560
#	176863
#	191045
#	210693
#	222828
#	234435
#	243280
#	255950
#	266080
#	278830
#	288935
#	301575
#	315223
#	323118
#	336148
#	349183
#
# Disc length: 4796 seconds
#
# Revision: 2
# Processed by: cddbd v1.5.2PL0 Copyright (c) Steve Scherf et al.
# Submitted via: CDex 1.70beta2
#
DISCID=a712ba1e
DTITLE=Various Artist - Golden Country Hits
DYEAR=1989
DGENRE=Country
TTITLE0=Kenny Rogers - Lucille
TTITLE1=Johnny Cash - Ring of fire
TTITLE2=Bobby Bare - 500 Miles away from home
TTITLE3=Charly Pride - Help me make it through the night
TTITLE4=Dolly Parton - Here you come again
TTITLE5=Bobby Sykes and Lou Darnell - On top of old Smokey
TTITLE6=The Cattlemen - The yellow rose of Texas
TTITLE7=Charlie Rich - The most beautiful girl
TTITLE8=Crystal Gayle - Wrong road again
TTITLE9=Floyd Cramer - Jambalaya
TTITLE10=Ronnie Milsap - Behind closed doors
TTITLE11=Don Gibson - Oh, lonesome me
TTITLE12=Jim Reeves - Welcome to my world
TTITLE13=Jerry Reed - King of the road
TTITLE14=The Cattlemen - Red river valley
TTITLE15=Johnny Cash - Orange blossom special
TTITLE16=Kenny Rogers - Coward of the country
TTITLE17=Dickey Lee - Never ending song of love
TTITLE18=Billie Jo Spears - Stand by your man
TTITLE19=Don Reno and Bobby Thompson weth The Cripple Creek Yuartet - Foggy Mountain Breakdown
TTITLE20=Hank Snow - I'm movin' on
TTITLE21=George Mamilton IV - Abilene
TTITLE22=Anne Murray - Tennesseewaltz
TTITLE23=Charly Pride - Then who am I
TTITLE24=Frank Sanders - Home on the range
TTITLE25=Dolly Parton - Joshua
TTITLE26=Gene Martin - San antonio rose
TTITLE27=The Browns - The three bells
TTITLE28=Bobby Bare - Detroit city
TTITLE29=Jim Reeves - He'll have to go
EXTD=YEAR: 1989
EXTT0=
EXTT1=
EXTT2=
EXTT3=
EXTT4=
EXTT5=
EXTT6=
EXTT7=
EXTT8=
EXTT9=
EXTT10=
EXTT11=
EXTT12=
EXTT13=
EXTT14=
EXTT15=
EXTT16=
EXTT17=
EXTT18=
EXTT19=
EXTT20=
EXTT21=
EXTT22=
EXTT23=
EXTT24=
EXTT25=
EXTT26=
EXTT27=
EXTT28=
EXTT29=
PLAYORDER=
